<svg width="56" height="41" viewBox="0 0 56 41" fill="none" xmlns="http://www.w3.org/2000/svg">
<path d="M40.8867 13.0665L28.1048 26.1371L15.3258 13.0665L28.1048 0L40.8867 13.0665Z" fill="#2056AE"/>
<path d="M28.1041 0L15.3258 13.0667L15.3268 13.0677H40.886L40.8867 13.0667L28.1041 0Z" fill="#1DA7E7"/>
<path d="M43.1138 41.4802L30.33 28.4096L43.1138 15.3438L55.8938 28.4096L43.1138 41.4802Z" fill="#2056AE"/>
<path d="M55.8938 28.4096L43.1138 15.3438L43.1129 15.3446V41.4773L43.1138 41.4802L55.8938 28.4096Z" fill="#1DA7E7"/>
<path d="M12.7838 41.4802L0 28.4096L12.7838 15.3438L25.5628 28.4096L12.7838 41.4802Z" fill="#2056AE"/>
<path d="M25.5631 28.4096L12.784 15.3438L12.7821 15.3446V41.4773L12.7838 41.4802L25.5631 28.4096Z" fill="#1DA7E7"/>
</svg>
