<svg width="176" height="43" viewBox="0 0 176 43" fill="none" xmlns="http://www.w3.org/2000/svg">
<path d="M79.8933 30.8041C80.8232 30.8041 81.0256 30.6789 80.7015 29.6052L79.6507 26.257C79.0858 24.4806 78.3573 22.2485 77.9942 21.3794C77.67 22.3292 76.8616 24.5613 76.2549 26.4632L75.245 29.5627C74.8799 30.6789 75.0825 30.8041 76.0934 30.8041H79.8933ZM75.2849 32.9936C74.315 32.9936 74.1933 33.0364 73.9509 33.8192L72.3743 38.6161C72.131 39.4426 72.091 39.775 72.091 40.1028C72.091 40.3545 72.6166 40.6013 73.7492 40.8056L74.9617 41.0147C75.2043 41.3044 75.2852 42.2542 74.8799 42.4585C73.466 42.3777 72.0102 42.3777 70.3127 42.3349C68.9378 42.3349 68.0078 42.4585 66.1486 42.4585C65.7039 42.2116 65.7446 41.3423 66.0262 41.0147L67.1178 40.8912C68.0887 40.7677 68.8969 40.4353 69.5842 38.8203C70.2718 37.1675 71.0393 35.1871 72.131 32.2082L75.8099 22.1221C76.7408 19.5194 77.4283 18.0737 77.3059 16.8748C79.2466 16.4189 80.7424 14.3928 80.8232 14.3928C81.3481 14.3928 81.5915 14.599 81.7541 15.2193C82.0764 16.4189 82.5623 17.9482 83.5722 20.8826L89.0712 37.0868C89.9203 39.5662 90.2837 40.516 91.7795 40.7677L93.3159 41.0147C93.5585 41.219 93.6384 42.2114 93.2752 42.4585C91.3345 42.3777 89.1511 42.3349 87.0496 42.3349C85.028 42.3349 83.4513 42.3777 81.5915 42.4585C81.1465 42.2116 81.0665 41.3423 81.5115 41.0147L82.8049 40.8056C83.7339 40.6395 83.8966 40.3545 83.8966 40.1028C83.8966 39.813 83.6131 38.8203 83.1281 37.291L82.0364 33.7382C81.834 33.0773 81.5115 32.9936 80.0957 32.9936H75.2849Z" fill="#444141"/>
<path d="M118.302 15.469C118.302 16.2119 118.423 19.5203 118.788 21.9161C118.627 22.4119 117.536 22.578 117.252 22.2057C116.161 18.3614 113.573 16.2944 109.651 16.2944C105.163 16.2944 100.352 20.2224 100.352 28.4465C100.352 36.6736 105.003 41.0955 109.852 41.0955C114.744 41.0955 117.009 37.4999 118.1 34.6883C118.423 34.3605 119.394 34.4841 119.635 34.9779C119.352 38.0368 118.666 40.516 118.1 41.4658C115.917 42.0881 113.048 43 109.894 43C105.932 43 101.889 42.0453 99.0186 39.8558C96.1079 37.5809 93.8836 34.1516 93.8836 29.026C93.8836 23.9838 95.9871 20.4293 98.776 18.0734C101.645 15.6351 105.769 14.3928 109.973 14.3928C114.098 14.3928 117.09 15.3854 118.302 15.469Z" fill="#444141"/>
<path d="M141.998 26.9999C141.998 28.4465 142.118 28.572 144.503 28.572C145.959 28.572 146.809 28.1994 147.576 27.413C148.264 26.7102 149.03 25.3879 149.03 22.9483C149.03 19.2307 146.888 16.832 143.735 16.832C142.078 16.832 141.998 16.9575 141.998 18.9399V26.9999ZM136.461 21.7517C136.461 17.6177 136.377 17.1647 134.681 16.9149L133.59 16.7513C133.185 16.5443 133.185 15.5087 133.669 15.3027C136.702 15.0958 139.856 14.9323 143.695 14.9323C147.13 14.9323 150.082 15.469 151.617 16.4181C153.964 17.8247 155.175 19.8899 155.175 22.5352C155.175 26.2161 152.752 27.7863 150.892 28.7361C150.488 28.9423 150.488 29.1921 150.689 29.6454C153.357 35.187 155.016 38.2836 156.954 39.9793C158.007 40.8484 159.059 41.0955 159.663 41.138C160.028 41.3423 160.028 41.9646 159.825 42.2114C159.18 42.5012 157.883 42.582 156.632 42.582C152.913 42.582 150.567 41.2187 148.789 38.2457C147.495 36.0513 146.566 34.0281 145.635 31.8376C145.152 30.7214 144.503 30.3909 143.493 30.3909C142.078 30.3909 141.998 30.4717 141.998 31.3009V36.3839C141.998 40.1882 142.239 40.478 144.06 40.8056L145.152 41.0147C145.434 41.219 145.434 42.2114 145.152 42.4584C143.008 42.3777 141.147 42.3349 139.208 42.3349C137.185 42.3349 135.406 42.3777 133.306 42.4584C132.981 42.2116 132.981 41.2187 133.306 41.0147L134.398 40.8056C136.216 40.478 136.46 40.1882 136.46 36.3839L136.461 21.7517Z" fill="#444141"/>
<path d="M169.167 30.7217C169.734 30.7217 170.379 30.638 170.825 30.3482C171.025 30.2249 171.109 29.8115 171.109 29.3983C171.109 28.0334 170.338 27.1261 168.964 27.1261C167.267 27.1261 165.811 28.779 165.811 30.1013C165.811 30.6789 166.378 30.7214 167.671 30.7214L169.167 30.7217ZM166.499 32.5406C165.57 32.5406 165.488 32.6233 165.488 33.2835C165.488 36.384 167.429 39.3998 171.188 39.3998C172.321 39.3998 173.857 39.1528 174.948 37.2531C175.392 37.1675 176 37.4999 176 38.2029C174.342 41.7175 171.35 42.9144 168.925 42.9144C163.467 42.9144 160.515 38.9867 160.515 34.4841C160.515 29.2748 164.195 25.2235 169.246 25.2235C173.452 25.2235 175.717 27.9925 175.717 31.1747C175.717 31.9611 175.512 32.5406 174.26 32.5406H166.499Z" fill="#444141"/>
<path d="M40.8867 13.0665L28.1048 26.1371L15.3258 13.0665L28.1048 0L40.8867 13.0665Z" fill="#2056AE"/>
<path d="M28.1041 0L15.3258 13.0667L15.3268 13.0677H40.886L40.8867 13.0667L28.1041 0Z" fill="#1DA7E7"/>
<path d="M43.1138 41.4802L30.33 28.4096L43.1138 15.3438L55.8938 28.4096L43.1138 41.4802Z" fill="#2056AE"/>
<path d="M55.8938 28.4096L43.1138 15.3438L43.1129 15.3446V41.4773L43.1138 41.4802L55.8938 28.4096Z" fill="#1DA7E7"/>
<path d="M12.7838 41.4802L0 28.4096L12.7838 15.3438L25.5628 28.4096L12.7838 41.4802Z" fill="#2056AE"/>
<path d="M25.5631 28.4096L12.784 15.3438L12.7821 15.3446V41.4773L12.7838 41.4802L25.5631 28.4096Z" fill="#1DA7E7"/>
</svg>
